<?xml version="1.0" encoding="UTF-8"?>
<svg xmlns="http://www.w3.org/2000/svg" width="2500" height="2500">
   <g transform="translate(100, 700)">
      <line x1="0" y1="-20" x2="-10" y2="-20" stroke="white"/>
      <line x1="0" y1="-20" x2="680" y2="-20" stroke="lightgray"/>
      <text x="-20" y="-20" text-anchor="end" alignment-baseline="central" fill="white">1</text>
      <line x1="0" y1="-40" x2="-10" y2="-40" stroke="white"/>
      <line x1="0" y1="-40" x2="680" y2="-40" stroke="lightgray"/>
      <text x="-20" y="-40" text-anchor="end" alignment-baseline="central" fill="white">2</text>
      <line x1="0" y1="-60" x2="-10" y2="-60" stroke="white"/>
      <line x1="0" y1="-60" x2="680" y2="-60" stroke="lightgray"/>
      <text x="-20" y="-60" text-anchor="end" alignment-baseline="central" fill="white">3</text>
      <line x1="0" y1="-80" x2="-10" y2="-80" stroke="white"/>
      <line x1="0" y1="-80" x2="680" y2="-80" stroke="lightgray"/>
      <text x="-20" y="-80" text-anchor="end" alignment-baseline="central" fill="white">4</text>
      <line x1="0" y1="-100" x2="-10" y2="-100" stroke="white"/>
      <line x1="0" y1="-100" x2="680" y2="-100" stroke="lightgray"/>
      <text x="-20" y="-100" text-anchor="end" alignment-baseline="central" fill="white">5</text>
      <line x1="0" y1="-120" x2="-10" y2="-120" stroke="white"/>
      <line x1="0" y1="-120" x2="680" y2="-120" stroke="lightgray"/>
      <text x="-20" y="-120" text-anchor="end" alignment-baseline="central" fill="white">6</text>
      <line x1="0" y1="-140" x2="-10" y2="-140" stroke="white"/>
      <line x1="0" y1="-140" x2="680" y2="-140" stroke="lightgray"/>
      <text x="-20" y="-140" text-anchor="end" alignment-baseline="central" fill="white">7</text>
      <line x1="0" y1="-160" x2="-10" y2="-160" stroke="white"/>
      <line x1="0" y1="-160" x2="680" y2="-160" stroke="lightgray"/>
      <text x="-20" y="-160" text-anchor="end" alignment-baseline="central" fill="white">8</text>
      <line x1="0" y1="-180" x2="-10" y2="-180" stroke="white"/>
      <line x1="0" y1="-180" x2="680" y2="-180" stroke="lightgray"/>
      <text x="-20" y="-180" text-anchor="end" alignment-baseline="central" fill="white">9</text>
      <line x1="0" y1="-200" x2="-10" y2="-200" stroke="white"/>
      <line x1="0" y1="-200" x2="680" y2="-200" stroke="lightgray"/>
      <text x="-20" y="-200" text-anchor="end" alignment-baseline="central" fill="white">10</text>
      <text x="340" y="60" text-anchor="middle" font-size="larger" fill="white">Figurative Language across Translations</text>
      <text x="-60"
            y="-100"
            writing-mode="tb"
            text-anchor="middle"
            font-size="larger" fill="white">Occurrences</text>
      <rect x="0"
            y="-140"
            width="40"
            height="140"
            fill="white"
            stroke="black"
            stroke-width="1"/>
      <rect x="160"
            y="-20"
            width="40"
            height="20"
            fill="white"
            stroke="black"
            stroke-width="1"/>
      <rect x="240"
            y="-20"
            width="40"
            height="20"
            fill="white"
            stroke="black"
            stroke-width="1"/>
      <rect x="320"
            y="-80"
            width="40"
            height="80"
            fill="white"
            stroke="black"
            stroke-width="1"/>
      <rect x="480"
            y="-100"
            width="40"
            height="100"
            fill="white"
            stroke="black"
            stroke-width="1"/>
      <rect x="600"
            y="-40"
            width="40"
            height="40"
            fill="white"
            stroke="black"
            stroke-width="1"/>
      <rect x="40"
            y="-140"
            width="40"
            height="140"
            fill="#fff0d6"
            stroke="black"
            stroke-width="1"/>
      <rect x="360"
            y="-80"
            width="40"
            height="80"
            fill="#fff0d6"
            stroke="black"
            stroke-width="1"/>
      <rect x="640"
            y="-40"
            width="40"
            height="40"
            fill="white"
            stroke="black"
            stroke-width="1"/>
      <rect x="80"
            y="-140"
            width="40"
            height="140"
            fill="#b8dbff"
            stroke="black"
            stroke-width="1"/>
      <rect x="400"
            y="-80"
            width="40"
            height="80"
            fill="#b8dbff"
            stroke="black"
            stroke-width="1"/>
      <rect x="520"
            y="-100"
            width="40"
            height="100"
            fill="#b8dbff"
            stroke="black"
            stroke-width="1"/>
      <text x="60" y="20" text-anchor="middle" fill="white">Anaphora</text>
      <text x="180" y="20" text-anchor="middle" fill="white">Asyndeton</text>
      <text x="260" y="20" text-anchor="middle" fill="white">Synchysis</text>
      <text x="380" y="20" text-anchor="middle" fill="white">Simile</text>
      <text x="520" y="20" text-anchor="middle" fill="white">Polyptoton</text>
      <text x="640" y="20" text-anchor="middle" fill="white">Polysndeton</text>
      <rect y="-148"
            x="740"
            height="20"
            width="20"
            fill="#003559"
            stroke="black"
            stroke-width="1"
            stroke-linecap="square"/>
      <text y="-138" x="780" alignment-baseline="middle" fill="white">Latin</text>
      <rect y="-112"
            x="740"
            height="20"
            width="20"
            fill="#fff0d6"
            stroke="black"
            stroke-width="1"
            stroke-linecap="square"/>
      <text y="-102" x="780" alignment-baseline="middle" fill="white">English</text>
      <rect y="-76"
            x="740"
            height="20"
            width="20"
            fill="white"
            stroke="black"
            stroke-width="1"
            stroke-linecap="square"/>
      <text y="-66" x="780" alignment-baseline="middle" fill="white">German</text>
      <rect y="-40"
            x="740"
            height="20"
            width="20"
            fill="#b8dbff"
            stroke="black"
            stroke-width="1"
            stroke-linecap="square"/>
      <text y="-30" x="780" alignment-baseline="middle" fill="white">Spanish</text>
         <line x1="0"
               y1="0"
               x2="680"
               y2="0"
               stroke="white"
               stroke-linecap="square"/>
         <line x1="0"
               y1="0"
               x2="0"
               y2="-200"
               stroke="white"
               stroke-linecap="square"/>
   </g>
</svg>
