<?xml version="1.0" encoding="UTF-8"?>
<svg xmlns="http://www.w3.org/2000/svg" width="1000" height="1000">
   <g transform="translate(100, 450)">
      <rect x="0" y="-80" width="40" height="80" fill="blue"/>
      <rect x="200" y="-10" width="40" height="10" fill="blue"/>
      <rect x="40" y="-140" width="40" height="140" fill="red"/>
      <rect x="240" y="-10" width="40" height="10" fill="red"/>
      <rect x="80" y="-90" width="40" height="90" fill="yellow"/>
      <rect x="280" y="-10" width="40" height="10" fill="yellow"/>
      <rect x="120" y="-160" width="40" height="160" fill="green"/>
      <rect x="320" y="-0" width="40" height="0" fill="green"/>
      <text x="60" y="5" text-anchor="middle">Names</text>
      <text x="260" y="5" text-anchor="middle">Nicknames</text>
      <line x1="0"
            y1="0"
            x2="360"
            y2="0"
            stroke="black"
            stroke-linecap="square"/>
      <line x1="0"
            y1="0"
            x2="0"
            y2="-200"
            stroke="black"
            stroke-linecap="square"/>
      <line x1="0" y1="-100" x2="-10" y2="-100" stroke="black"/>
      <line x1="0" y1="-100" x2="360" y2="-100" stroke="lightgray"/>
      <text x="-20" y="-100" text-anchor="end" alignment-baseline="central">10</text>
      <line x1="0" y1="-200" x2="-10" y2="-200" stroke="black"/>
      <line x1="0" y1="-200" x2="360" y2="-200" stroke="lightgray"/>
      <text x="-20" y="-200" text-anchor="end" alignment-baseline="central">20</text>
      <text x="180" y="100" text-anchor="middle" font-size="larger">Types of Names</text>
      <text x="-50"
            y="-200"
            writing-mode="tb"
            text-anchor="middle"
            font-size="larger">Occurrences</text>
   </g>
</svg>
