<?xml version="1.0" encoding="UTF-8"?>
<svg xmlns="http://www.w3.org/2000/svg" width="1000" height="1000">
   <g transform="translate(100, 450)">
      <rect x="0"
            y="-80"
            width="40"
            height="80"
            fill="#003559"
            stroke-width="1"
            stroke="black"/>
      <rect x="200"
            y="-10"
            width="40"
            height="10"
            fill="#003559"
            stroke="black"
            stroke-width="1"/>
      <rect x="40"
            y="-140"
            width="40"
            height="140"
            fill="#fff0d6"
            stroke-width="1"
            stroke="black"/>
      <rect x="240"
            y="-10"
            width="40"
            height="10"
            fill="#fff0d6"
            stroke="black"
            stroke-width="1"/>
      <rect x="80"
            y="-90"
            width="40"
            height="90"
            fill="black"
            stroke-width="1"
            stroke="black"/>
      <rect x="280"
            y="-10"
            width="40"
            height="10"
            fill="black"
            stroke="black"
            stroke-width="1"/>
      <rect x="120"
            y="-160"
            width="40"
            height="160"
            fill="#b8dbff"
            stroke-width="1"
            stroke="black"/>
      <rect x="320"
            y="-0"
            width="40"
            height="0"
            fill="#b8dbff"
            stroke="black"
            stroke-width="1"/>
      <text x="80" y="20" text-anchor="middle">Names</text>
      <text x="260" y="20" text-anchor="middle">Nicknames</text>
      <line x1="0"
            y1="0"
            x2="360"
            y2="0"
            stroke="black"
            stroke-linecap="square"/>
      <line x1="0"
            y1="0"
            x2="0"
            y2="-200"
            stroke="black"
            stroke-linecap="square"/>
      <line x1="0" y1="-50" x2="-10" y2="-50" stroke="black"/>
      <line x1="0" y1="-50" x2="360" y2="-50" stroke="lightgray"/>
      <text x="-20" y="-50" text-anchor="end" alignment-baseline="central">5</text>
      <line x1="0" y1="-100" x2="-10" y2="-100" stroke="black"/>
      <line x1="0" y1="-100" x2="360" y2="-100" stroke="lightgray"/>
      <text x="-20" y="-100" text-anchor="end" alignment-baseline="central">10</text>
      <line x1="0" y1="-150" x2="-10" y2="-150" stroke="black"/>
      <line x1="0" y1="-150" x2="360" y2="-150" stroke="lightgray"/>
      <text x="-20" y="-150" text-anchor="end" alignment-baseline="central">15</text>
      <line x1="0" y1="-200" x2="-10" y2="-200" stroke="black"/>
      <line x1="0" y1="-200" x2="360" y2="-200" stroke="lightgray"/>
      <text x="-20" y="-200" text-anchor="end" alignment-baseline="central">20</text>
      <text x="180" y="40" text-anchor="middle" font-size="larger">Types of Names</text>
      <text x="-50"
            y="-100"
            writing-mode="tb"
            text-anchor="middle"
            font-size="larger">Occurrences</text>
      <rect y="-148"
            x="420"
            height="20"
            width="20"
            fill="#003559"
            stroke="black"
            stroke-width="1"
            stroke-linecap="square"/>
      <text y="-138" x="460" alignment-baseline="middle">Latin</text>
      <rect y="-112"
            x="420"
            height="20"
            width="20"
            fill="#fff0d6"
            stroke="black"
            stroke-width="1"
            stroke-linecap="square"/>
      <text y="-102" x="460" alignment-baseline="middle">English</text>
      <rect y="-76"
            x="420"
            height="20"
            width="20"
            fill="black"
            stroke="black"
            stroke-width="1"
            stroke-linecap="square"/>
      <text y="-66" x="460" alignment-baseline="middle">German</text>
      <rect y="-40"
            x="420"
            height="20"
            width="20"
            fill="#b8dbff"
            stroke="black"
            stroke-width="1"
            stroke-linecap="square"/>
      <text y="-30" x="460" alignment-baseline="middle">Spanish</text>
   </g>
</svg>
