<?xml version="1.0" encoding="UTF-8"?>
<svg xmlns="http://www.w3.org/2000/svg" width="2500" height="2500">
   <g transform="translate(100, 700)">
      <line x1="0"
            y1="0"
            x2="580"
            y2="0"
            stroke="black"
            stroke-linecap="square"/>
      <line x1="0"
            y1="0"
            x2="0"
            y2="-300"
            stroke="black"
            stroke-linecap="square"/>
      <line x1="0" y1="-100" x2="-10" y2="-100" stroke="black"/>
      <line x1="0" y1="-100" x2="580" y2="-100" stroke="lightgray"/>
      <text x="-20" y="-100" text-anchor="end" alignment-baseline="central">5</text>
      <line x1="0" y1="-200" x2="-10" y2="-200" stroke="black"/>
      <line x1="0" y1="-200" x2="580" y2="-200" stroke="lightgray"/>
      <text x="-20" y="-200" text-anchor="end" alignment-baseline="central">10</text>
      <line x1="0" y1="-300" x2="-10" y2="-300" stroke="black"/>
      <line x1="0" y1="-300" x2="580" y2="-300" stroke="lightgray"/>
      <text x="-20" y="-300" text-anchor="end" alignment-baseline="central">15</text>
      <text x="290" y="60" text-anchor="middle" font-size="larger">Sound Devices in Each Language</text>
      <text x="-60"
            y="-150"
            writing-mode="tb"
            text-anchor="middle"
            font-size="larger">Occurrences</text>
      <rect x="0"
            y="-120"
            width="40"
            height="120"
            fill="#003559"
            stroke="black"
            stroke-width="1"/>
      <rect x="100"
            y="-60"
            width="40"
            height="60"
            fill="#003559"
            stroke="black"
            stroke-width="1"/>
      <rect x="280"
            y="-120"
            width="40"
            height="120"
            fill="#003559"
            stroke="black"
            stroke-width="1"/>
      <rect x="500"
            y="-60"
            width="40"
            height="60"
            fill="#003559"
            stroke="black"
            stroke-width="1"/>
      <rect x="140"
            y="-240"
            width="40"
            height="240"
            fill="#fff0d6"
            stroke="black"
            stroke-width="1"/>
      <rect x="320"
            y="-60"
            width="40"
            height="60"
            fill="#fff0d6"
            stroke="black"
            stroke-width="1"/>
      <rect x="360"
            y="-40"
            width="40"
            height="40"
            fill="black"
            stroke="black"
            stroke-width="1"/>
      <rect x="180"
            y="-40"
            width="40"
            height="40"
            fill="#b8dbff"
            stroke="black"
            stroke-width="1"/>
      <rect x="400"
            y="-80"
            width="40"
            height="80"
            fill="#b8dbff"
            stroke="black"
            stroke-width="1"/>
      <rect x="540"
            y="-60"
            width="40"
            height="60"
            fill="#b8dbff"
            stroke="black"
            stroke-width="1"/>
      <text x="20" y="20" text-anchor="middle">Consonance</text>
      <text x="160" y="20" text-anchor="middle">Alliteration</text>
      <text x="360" y="20" text-anchor="middle">Sibilance</text>
      <text x="540" y="20" text-anchor="middle">Assonance</text>
      <rect y="-148"
            x="640"
            height="20"
            width="20"
            fill="#003559"
            stroke="black"
            stroke-width="1"
            stroke-linecap="square"/>
      <text y="-138" x="680" alignment-baseline="middle">Latin</text>
      <rect y="-112"
            x="640"
            height="20"
            width="20"
            fill="#fff0d6"
            stroke="black"
            stroke-width="1"
            stroke-linecap="square"/>
      <text y="-102" x="680" alignment-baseline="middle">English</text>
      <rect y="-76"
            x="640"
            height="20"
            width="20"
            fill="black"
            stroke="black"
            stroke-width="1"
            stroke-linecap="square"/>
      <text y="-66" x="680" alignment-baseline="middle">German</text>
      <rect y="-40"
            x="640"
            height="20"
            width="20"
            fill="#b8dbff"
            stroke="black"
            stroke-width="1"
            stroke-linecap="square"/>
      <text y="-30" x="680" alignment-baseline="middle">Spanish</text>
   </g>
</svg>
