<?xml version="1.0" encoding="UTF-8"?>
<svg xmlns="http://www.w3.org/2000/svg" width="2500" height="2000">
   <g transform="translate(150, 1150)">
      <line x1="0"
            y1="0"
            x2="1040"
            y2="0"
            stroke="black"
            stroke-linecap="square"/>
      <line x1="0"
            y1="0"
            x2="0"
            y2="-1000"
            stroke="black"
            stroke-linecap="square"/>
      <line x1="0" y1="-100" x2="-10" y2="-100" stroke="black"/>
      <line x1="0" y1="-100" x2="1040" y2="-100" stroke="black"/>
      <text x="-20" y="-100" text-anchor="end" alignment-baseline="central">10</text>
      <line x1="0" y1="-200" x2="-10" y2="-200" stroke="black"/>
      <line x1="0" y1="-200" x2="1040" y2="-200" stroke="black"/>
      <text x="-20" y="-200" text-anchor="end" alignment-baseline="central">20</text>
      <line x1="0" y1="-300" x2="-10" y2="-300" stroke="black"/>
      <line x1="0" y1="-300" x2="1040" y2="-300" stroke="black"/>
      <text x="-20" y="-300" text-anchor="end" alignment-baseline="central">30</text>
      <line x1="0" y1="-400" x2="-10" y2="-400" stroke="black"/>
      <line x1="0" y1="-400" x2="1040" y2="-400" stroke="black"/>
      <text x="-20" y="-400" text-anchor="end" alignment-baseline="central">40</text>
      <line x1="0" y1="-500" x2="-10" y2="-500" stroke="black"/>
      <line x1="0" y1="-500" x2="1040" y2="-500" stroke="black"/>
      <text x="-20" y="-500" text-anchor="end" alignment-baseline="central">50</text>
      <line x1="0" y1="-600" x2="-10" y2="-600" stroke="black"/>
      <line x1="0" y1="-600" x2="1040" y2="-600" stroke="black"/>
      <text x="-20" y="-600" text-anchor="end" alignment-baseline="central">60</text>
      <line x1="0" y1="-700" x2="-10" y2="-700" stroke="black"/>
      <line x1="0" y1="-700" x2="1040" y2="-700" stroke="black"/>
      <text x="-20" y="-700" text-anchor="end" alignment-baseline="central">70</text>
      <line x1="0" y1="-800" x2="-10" y2="-800" stroke="black"/>
      <line x1="0" y1="-800" x2="1040" y2="-800" stroke="black"/>
      <text x="-20" y="-800" text-anchor="end" alignment-baseline="central">80</text>
      <line x1="0" y1="-900" x2="-10" y2="-900" stroke="black"/>
      <line x1="0" y1="-900" x2="1040" y2="-900" stroke="black"/>
      <text x="-20" y="-900" text-anchor="end" alignment-baseline="central">90</text>
      <line x1="0" y1="-1000" x2="-10" y2="-1000" stroke="black"/>
      <line x1="0" y1="-1000" x2="1040" y2="-1000" stroke="black"/>
      <text x="-20"
            y="-1000"
            text-anchor="end"
            alignment-baseline="central">100</text>
      <text x="520" y="50" text-anchor="middle" font-size="larger">Tenses</text>
      <text x="-50"
            y="-500"
            writing-mode="tb"
            text-anchor="middle"
            font-size="larger">Occurrences</text>
      <text x="520" y="-1050" text-anchor="middle" font-size="larger">Tense Occurrences in Each Language</text>
      <rect x="300" y="-550" width="40" height="550" fill="blue"/>
      <rect x="500" y="-60" width="40" height="60" fill="blue"/>
      <rect x="660" y="-300" width="40" height="300" fill="blue"/>
      <rect x="740" y="-70" width="40" height="70" fill="blue"/>
      <rect x="820" y="-20" width="40" height="20" fill="blue"/>
      <rect x="1400" y="-0" width="40" height="0" fill="blue"/>
      <rect x="1600" y="-0" width="40" height="0" fill="blue"/>
      <rect x="140" y="-740" width="40" height="740" fill="red"/>
      <rect x="340" y="-500" width="40" height="500" fill="red"/>
      <rect x="540" y="-10" width="40" height="10" fill="red"/>
      <rect x="720" y="-0" width="40" height="0" fill="red"/>
      <rect x="860" y="-30" width="40" height="30" fill="red"/>
      <rect x="1440" y="-0" width="40" height="0" fill="red"/>
      <rect x="1640" y="-0" width="40" height="0" fill="red"/>
      <rect x="180" y="-290" width="40" height="290" fill="yellow"/>
      <rect x="380" y="-800" width="40" height="800" fill="yellow"/>
      <rect x="880" y="-0" width="40" height="0" fill="yellow"/>
      <rect x="900" y="-20" width="40" height="20" fill="yellow"/>
      <rect x="1480" y="-0" width="40" height="0" fill="yellow"/>
      <rect x="1680" y="-0" width="40" height="0" fill="yellow"/>
      <rect x="60" y="-90" width="40" height="90" fill="green"/>
      <rect x="220" y="-270" width="40" height="270" fill="green"/>
      <rect x="420" y="-790" width="40" height="790" fill="green"/>
      <rect x="580" y="-50" width="40" height="50" fill="green"/>
      <rect x="920" y="-0" width="40" height="0" fill="green"/>
      <rect x="940" y="-50" width="40" height="50" fill="green"/>
      <rect x="1520" y="-0" width="40" height="0" fill="green"/>
      <rect x="1720" y="-0" width="40" height="0" fill="green"/>
      <text x="75" y="20" text-anchor="middle">Preterite</text>
      <text x="200" y="20" text-anchor="middle">Past</text>
      <text x="380" y="20" text-anchor="middle">Present</text>
      <text x="560" y="20" text-anchor="middle">Imperfect</text>
      <text x="680" y="20" text-anchor="middle">Perfect</text>
      <text x="760" y="20" text-anchor="middle">Pluperfect</text>
      <text x="900" y="20" text-anchor="middle">Future</text>
      <text x="1050" y="250" text-anchor="middle">Latin</text>
      <text x="1050" y="225" text-anchor="middle">English</text>
   </g>
</svg>
