<?xml version="1.0" encoding="UTF-8"?>
<svg xmlns="http://www.w3.org/2000/svg" width="1300" height="650">
   <g transform="translate(100, 575)">
      <line x1="0"
            y1="0"
            x2="1040"
            y2="0"
            stroke="black"
            stroke-linecap="square"/>
      <line x1="0"
            y1="0"
            x2="0"
            y2="-500"
            stroke="black"
            stroke-linecap="square"/>
      <line x1="0" y1="-50" x2="-10" y2="-50" stroke="black"/>
      <line x1="0" y1="-50" x2="1040" y2="-50" stroke="black"/>
      <text x="-20" y="-50" text-anchor="end" alignment-baseline="central">10</text>
      <line x1="0" y1="-100" x2="-10" y2="-100" stroke="black"/>
      <line x1="0" y1="-100" x2="1040" y2="-100" stroke="black"/>
      <text x="-20" y="-100" text-anchor="end" alignment-baseline="central">20</text>
      <line x1="0" y1="-150" x2="-10" y2="-150" stroke="black"/>
      <line x1="0" y1="-150" x2="1040" y2="-150" stroke="black"/>
      <text x="-20" y="-150" text-anchor="end" alignment-baseline="central">30</text>
      <line x1="0" y1="-200" x2="-10" y2="-200" stroke="black"/>
      <line x1="0" y1="-200" x2="1040" y2="-200" stroke="black"/>
      <text x="-20" y="-200" text-anchor="end" alignment-baseline="central">40</text>
      <line x1="0" y1="-250" x2="-10" y2="-250" stroke="black"/>
      <line x1="0" y1="-250" x2="1040" y2="-250" stroke="black"/>
      <text x="-20" y="-250" text-anchor="end" alignment-baseline="central">50</text>
      <line x1="0" y1="-300" x2="-10" y2="-300" stroke="black"/>
      <line x1="0" y1="-300" x2="1040" y2="-300" stroke="black"/>
      <text x="-20" y="-300" text-anchor="end" alignment-baseline="central">60</text>
      <line x1="0" y1="-350" x2="-10" y2="-350" stroke="black"/>
      <line x1="0" y1="-350" x2="1040" y2="-350" stroke="black"/>
      <text x="-20" y="-350" text-anchor="end" alignment-baseline="central">70</text>
      <line x1="0" y1="-400" x2="-10" y2="-400" stroke="black"/>
      <line x1="0" y1="-400" x2="1040" y2="-400" stroke="black"/>
      <text x="-20" y="-400" text-anchor="end" alignment-baseline="central">80</text>
      <line x1="0" y1="-450" x2="-10" y2="-450" stroke="black"/>
      <line x1="0" y1="-450" x2="1040" y2="-450" stroke="black"/>
      <text x="-20" y="-450" text-anchor="end" alignment-baseline="central">90</text>
      <line x1="0" y1="-500" x2="-10" y2="-500" stroke="black"/>
      <line x1="0" y1="-500" x2="1040" y2="-500" stroke="black"/>
      <text x="-20" y="-500" text-anchor="end" alignment-baseline="central">100</text>
      <text x="520" y="50" text-anchor="middle" font-size="larger">Tenses</text>
      <text x="-50"
            y="-250"
            writing-mode="tb"
            text-anchor="middle"
            font-size="larger">Occurrences</text>
      <text x="520" y="-550" text-anchor="middle" font-size="larger">Tense Occurrences in Each Language</text>
      <rect x="300"
            y="-275"
            width="40"
            height="275"
            fill="white"
            stroke="black"
            stroke-width="1"
            stroke-linecap="square"/>
      <rect x="500"
            y="-30"
            width="40"
            height="30"
            fill="white"
            stroke="black"
            stroke-width="1"
            stroke-linecap="square"/>
      <rect x="660"
            y="-150"
            width="40"
            height="150"
            fill="white"
            stroke="black"
            stroke-width="1"
            stroke-linecap="square"/>
      <rect x="740"
            y="-35"
            width="40"
            height="35"
            fill="white"
            stroke="black"
            stroke-width="1"
            stroke-linecap="square"/>
      <rect x="820"
            y="-10"
            width="40"
            height="10"
            fill="white"
            stroke="black"
            stroke-width="1"
            stroke-linecap="square"/>
      <rect x="140"
            y="-370"
            width="40"
            height="370"
            fill="#fff0d6"
            stroke="black"
            stroke-width="1"
            stroke-linecap="square"/>
      <rect x="340"
            y="-250"
            width="40"
            height="250"
            fill="#fff0d6"
            stroke="black"
            stroke-width="1"
            stroke-linecap="square"/>
      <rect x="540"
            y="-5"
            width="40"
            height="5"
            fill="#fff0d6"
            stroke="black"
            stroke-width="1"
            stroke-linecap="square"/>
      <rect x="860"
            y="-15"
            width="40"
            height="15"
            fill="#fff0d6"
            stroke="black"
            stroke-width="1"
            stroke-linecap="square"/>
      <rect x="180"
            y="-145"
            width="40"
            height="145"
            fill="black"
            stroke="black"
            stroke-width="1"
            stroke-linecap="square"/>
      <rect x="380"
            y="-400"
            width="40"
            height="400"
            fill="black"
            stroke="black"
            stroke-width="1"
            stroke-linecap="square"/>
      <rect x="900"
            y="-10"
            width="40"
            height="10"
            fill="black"
            stroke="black"
            stroke-width="1"
            stroke-linecap="square"/>
      <rect x="60"
            y="-45"
            width="40"
            height="45"
            fill="#b8dbff"
            stroke="black"
            stroke-width="1"
            stroke-linecap="square"/>
      <rect x="220"
            y="-135"
            width="40"
            height="135"
            fill="#b8dbff"
            stroke="black"
            stroke-width="1"
            stroke-linecap="square"/>
      <rect x="420"
            y="-395"
            width="40"
            height="395"
            fill="#b8dbff"
            stroke="black"
            stroke-width="1"
            stroke-linecap="square"/>
      <rect x="580"
            y="-25"
            width="40"
            height="25"
            fill="#b8dbff"
            stroke="black"
            stroke-width="1"
            stroke-linecap="square"/>
      <rect x="940"
            y="-25"
            width="40"
            height="25"
            fill="#b8dbff"
            stroke="black"
            stroke-width="1"
            stroke-linecap="square"/>
      <text x="75" y="20" text-anchor="middle">Preterite</text>
      <text x="200" y="20" text-anchor="middle">Past</text>
      <text x="380" y="20" text-anchor="middle">Present</text>
      <text x="560" y="20" text-anchor="middle">Imperfect</text>
      <text x="680" y="20" text-anchor="middle">Perfect</text>
      <text x="760" y="20" text-anchor="middle">Pluperfect</text>
      <text x="900" y="20" text-anchor="middle">Future</text>
      <rect y="-148"
            x="1080"
            height="20"
            width="20"
            fill="white"
            stroke="black"
            stroke-width="1"
            stroke-linecap="square"/>
      <text y="-138" x="1120" alignment-baseline="middle">Latin</text>
      <rect y="-112"
            x="1080"
            height="20"
            width="20"
            fill="#fff0d6"
            stroke="black"
            stroke-width="1"
            stroke-linecap="square"/>
      <text y="-102" x="1120" alignment-baseline="middle">English</text>
      <rect y="-76"
            x="1080"
            height="20"
            width="20"
            fill="black"
            stroke="black"
            stroke-width="1"
            stroke-linecap="square"/>
      <text y="-66" x="1120" alignment-baseline="middle">German</text>
      <rect y="-40"
            x="1080"
            height="20"
            width="20"
            fill="#b8dbff"
            stroke="black"
            stroke-width="1"
            stroke-linecap="square"/>
      <text y="-30" x="1120" alignment-baseline="middle">Spanish</text>
   </g>
</svg>
