<?xml version="1.0" encoding="UTF-8"?>
<svg xmlns="http://www.w3.org/2000/svg">
   <g transform="translate(75, 650)">
      <desc>2012 Election Results</desc>
      <line x1="0"
            y1="0"
            x2="1530"
            y2="0"
            stroke="black"
            stroke-linecap="square"/>
      <line x1="0"
            y1="0"
            x2="0"
            y2="-500"
            stroke="black"
            stroke-linecap="square"/>
      <line x1="0" y1="-50" x2="-10" y2="-50" stroke="black"/>
      <line x1="0" y1="-50" x2="1530" y2="-50" stroke="lightgray"/>
      <text x="-20" y="-50" text-anchor="end" alignment-baseline="central">10%</text>
      <line x1="0" y1="-100" x2="-10" y2="-100" stroke="black"/>
      <line x1="0" y1="-100" x2="1530" y2="-100" stroke="lightgray"/>
      <text x="-20" y="-100" text-anchor="end" alignment-baseline="central">20%</text>
      <line x1="0" y1="-150" x2="-10" y2="-150" stroke="black"/>
      <line x1="0" y1="-150" x2="1530" y2="-150" stroke="lightgray"/>
      <text x="-20" y="-150" text-anchor="end" alignment-baseline="central">30%</text>
      <line x1="0" y1="-200" x2="-10" y2="-200" stroke="black"/>
      <line x1="0" y1="-200" x2="1530" y2="-200" stroke="lightgray"/>
      <text x="-20" y="-200" text-anchor="end" alignment-baseline="central">40%</text>
      <line x1="0" y1="-250" x2="-10" y2="-250" stroke="black"/>
      <line x1="0" y1="-250" x2="1530" y2="-250" stroke="lightgray"/>
      <text x="-20" y="-250" text-anchor="end" alignment-baseline="central">50%</text>
      <line x1="0" y1="-300" x2="-10" y2="-300" stroke="black"/>
      <line x1="0" y1="-300" x2="1530" y2="-300" stroke="lightgray"/>
      <text x="-20" y="-300" text-anchor="end" alignment-baseline="central">60%</text>
      <line x1="0" y1="-350" x2="-10" y2="-350" stroke="black"/>
      <line x1="0" y1="-350" x2="1530" y2="-350" stroke="lightgray"/>
      <text x="-20" y="-350" text-anchor="end" alignment-baseline="central">70%</text>
      <line x1="0" y1="-400" x2="-10" y2="-400" stroke="black"/>
      <line x1="0" y1="-400" x2="1530" y2="-400" stroke="lightgray"/>
      <text x="-20" y="-400" text-anchor="end" alignment-baseline="central">80%</text>
      <line x1="0" y1="-450" x2="-10" y2="-450" stroke="black"/>
      <line x1="0" y1="-450" x2="1530" y2="-450" stroke="lightgray"/>
      <text x="-20" y="-450" text-anchor="end" alignment-baseline="central">90%</text>
      <line x1="0" y1="-500" x2="-10" y2="-500" stroke="black"/>
      <line x1="0" y1="-500" x2="1530" y2="-500" stroke="lightgray"/>
      <text x="-20" y="-500" text-anchor="end" alignment-baseline="central">100%</text>
      <text x="765" y="50" text-anchor="middle" font-size="larger">States</text>
      <text x="-62"
            y="-250"
            writing-mode="tb"
            text-anchor="middle"
            font-size="larger"> Percentage of Popular Vote Cast for Democratic Party</text>
      <rect x="5"
            y="-192.4638339110013"
            width="20"
            height="192.4638339110013"
            fill="blue"/>
      <text x="15" y="-207.4638339110013" text-anchor="middle">38%</text>
      <text x="15" y="25" text-anchor="middle">AL</text>
      <rect x="35"
            y="-206.35356771980298"
            width="20"
            height="206.35356771980298"
            fill="blue"/>
      <text x="45" y="-221.35356771980298" text-anchor="middle">41%</text>
      <text x="45" y="25" text-anchor="middle">AK</text>
      <rect x="65"
            y="-220.62971466054447"
            width="20"
            height="220.62971466054447"
            fill="blue"/>
      <text x="75" y="-235.62971466054447" text-anchor="middle">44%</text>
      <text x="75" y="25" text-anchor="middle">AZ</text>
      <rect x="95"
            y="-184.6260077283509"
            width="20"
            height="184.6260077283509"
            fill="blue"/>
      <text x="105" y="-199.6260077283509" text-anchor="middle">37%</text>
      <text x="105" y="25" text-anchor="middle">AR</text>
      <rect x="125"
            y="-298.7952277525507"
            width="20"
            height="298.7952277525507"
            fill="blue"/>
      <text x="135" y="-313.7952277525507" text-anchor="middle">60%</text>
      <text x="135" y="25" text-anchor="middle">CA</text>
      <rect x="155"
            y="-258.201319107282"
            width="20"
            height="258.201319107282"
            fill="blue"/>
      <text x="165" y="-273.201319107282" text-anchor="middle">52%</text>
      <text x="165" y="25" text-anchor="middle">CO</text>
      <rect x="185"
            y="-293.13537222269696"
            width="20"
            height="293.13537222269696"
            fill="blue"/>
      <text x="195" y="-308.13537222269696" text-anchor="middle">59%</text>
      <text x="195" y="25" text-anchor="middle">CT</text>
      <rect x="215"
            y="-293.0537099229264"
            width="20"
            height="293.0537099229264"
            fill="blue"/>
      <text x="225" y="-308.0537099229264" text-anchor="middle">59%</text>
      <text x="225" y="25" text-anchor="middle">DE</text>
      <rect x="245"
            y="-456.8190410441014"
            width="20"
            height="456.8190410441014"
            fill="blue"/>
      <text x="255" y="-471.8190410441014" text-anchor="middle">91%</text>
      <text x="255" y="25" text-anchor="middle">DC</text>
      <rect x="275"
            y="-250.57907588068346"
            width="20"
            height="250.57907588068346"
            fill="blue"/>
      <text x="285" y="-265.5790758806835" text-anchor="middle">50%</text>
      <text x="285" y="25" text-anchor="middle">FL</text>
      <rect x="305"
            y="-227.53979833441042"
            width="20"
            height="227.53979833441042"
            fill="blue"/>
      <text x="315" y="-242.53979833441042" text-anchor="middle">46%</text>
      <text x="315" y="25" text-anchor="middle">GA</text>
      <rect x="335"
            y="-352.72438147093817"
            width="20"
            height="352.72438147093817"
            fill="blue"/>
      <text x="345" y="-367.72438147093817" text-anchor="middle">71%</text>
      <text x="345" y="25" text-anchor="middle">HI</text>
      <rect x="365"
            y="-164.38748948904387"
            width="20"
            height="164.38748948904387"
            fill="blue"/>
      <text x="375" y="-179.38748948904387" text-anchor="middle">33%</text>
      <text x="375" y="25" text-anchor="middle">ID</text>
      <rect x="395"
            y="-286.4639610485909"
            width="20"
            height="286.4639610485909"
            fill="blue"/>
      <text x="405" y="-301.4639610485909" text-anchor="middle">57%</text>
      <text x="405" y="25" text-anchor="middle">IL</text>
      <rect x="425"
            y="-220.07344104941984"
            width="20"
            height="220.07344104941984"
            fill="blue"/>
      <text x="435" y="-235.07344104941984" text-anchor="middle">44%</text>
      <text x="435" y="25" text-anchor="middle">IN</text>
      <rect x="455"
            y="-261.5215632309387"
            width="20"
            height="261.5215632309387"
            fill="blue"/>
      <text x="465" y="-276.5215632309387" text-anchor="middle">52%</text>
      <text x="465" y="25" text-anchor="middle">IA</text>
      <rect x="485"
            y="-189.93135417711562"
            width="20"
            height="189.93135417711562"
            fill="blue"/>
      <text x="495" y="-204.93135417711562" text-anchor="middle">38%</text>
      <text x="495" y="25" text-anchor="middle">KS</text>
      <rect x="515"
            y="-189.7759753102422"
            width="20"
            height="189.7759753102422"
            fill="blue"/>
      <text x="525" y="-204.7759753102422" text-anchor="middle">38%</text>
      <text x="525" y="25" text-anchor="middle">KY</text>
      <rect x="545"
            y="-203.65605893267585"
            width="20"
            height="203.65605893267585"
            fill="blue"/>
      <text x="555" y="-218.65605893267585" text-anchor="middle">41%</text>
      <text x="555" y="25" text-anchor="middle">LA</text>
      <rect x="575"
            y="-279.8175980459747"
            width="20"
            height="279.8175980459747"
            fill="blue"/>
      <text x="585" y="-294.8175980459747" text-anchor="middle">56%</text>
      <text x="585" y="25" text-anchor="middle">ME</text>
      <rect x="605"
            y="-308.36146640581677"
            width="20"
            height="308.36146640581677"
            fill="blue"/>
      <text x="615" y="-323.3614664058167" text-anchor="middle">62%</text>
      <text x="615" y="25" text-anchor="middle">MD</text>
      <rect x="635"
            y="-303.78733775471255"
            width="20"
            height="303.78733775471255"
            fill="blue"/>
      <text x="645" y="-318.78733775471255" text-anchor="middle">61%</text>
      <text x="645" y="25" text-anchor="middle">MA</text>
      <rect x="665"
            y="-272.74904602355684"
            width="20"
            height="272.74904602355684"
            fill="blue"/>
      <text x="675" y="-287.74904602355684" text-anchor="middle">55%</text>
      <text x="675" y="25" text-anchor="middle">MI</text>
      <rect x="695"
            y="-263.26373116268013"
            width="20"
            height="263.26373116268013"
            fill="blue"/>
      <text x="705" y="-278.26373116268013" text-anchor="middle">53%</text>
      <text x="705" y="25" text-anchor="middle">MN</text>
      <rect x="725"
            y="-218.19837026560836"
            width="20"
            height="218.19837026560836"
            fill="blue"/>
      <text x="735" y="-233.19837026560836" text-anchor="middle">44%</text>
      <text x="735" y="25" text-anchor="middle">MS</text>
      <rect x="755"
            y="-222.6128955544587"
            width="20"
            height="222.6128955544587"
            fill="blue"/>
      <text x="765" y="-237.6128955544587" text-anchor="middle">45%</text>
      <text x="765" y="25" text-anchor="middle">MO</text>
      <rect x="785"
            y="-208.4878510349501"
            width="20"
            height="208.4878510349501"
            fill="blue"/>
      <text x="795" y="-223.4878510349501" text-anchor="middle">42%</text>
      <text x="795" y="25" text-anchor="middle">MT</text>
      <rect x="815"
            y="-189.92093019643175"
            width="20"
            height="189.92093019643175"
            fill="blue"/>
      <text x="825" y="-204.92093019643175" text-anchor="middle">38%</text>
      <text x="825" y="25" text-anchor="middle">NE</text>
      <rect x="845"
            y="-263.8376291744803"
            width="20"
            height="263.8376291744803"
            fill="blue"/>
      <text x="855" y="-278.8376291744803" text-anchor="middle">53%</text>
      <text x="855" y="25" text-anchor="middle">NV</text>
      <rect x="875"
            y="-261.47267417605343"
            width="20"
            height="261.47267417605343"
            fill="blue"/>
      <text x="885" y="-276.47267417605343" text-anchor="middle">52%</text>
      <text x="885" y="25" text-anchor="middle">NH</text>
      <rect x="905"
            y="-290.6962676901618"
            width="20"
            height="290.6962676901618"
            fill="blue"/>
      <text x="915" y="-305.6962676901618" text-anchor="middle">58%</text>
      <text x="915" y="25" text-anchor="middle">NJ</text>
      <rect x="935"
            y="-265.2323677956415"
            width="20"
            height="265.2323677956415"
            fill="blue"/>
      <text x="945" y="-280.2323677956415" text-anchor="middle">53%</text>
      <text x="945" y="25" text-anchor="middle">NM</text>
      <rect x="965"
            y="-313.55227966624113"
            width="20"
            height="313.55227966624113"
            fill="blue"/>
      <text x="975" y="-328.55227966624113" text-anchor="middle">63%</text>
      <text x="975" y="25" text-anchor="middle">NY</text>
      <rect x="995"
            y="-242.09481180314285"
            width="20"
            height="242.09481180314285"
            fill="blue"/>
      <text x="1005" y="-257.0948118031429" text-anchor="middle">48%</text>
      <text x="1005" y="25" text-anchor="middle">NC</text>
      <rect x="1025"
            y="-195.30207007813206"
            width="20"
            height="195.30207007813206"
            fill="blue"/>
      <text x="1035" y="-210.30207007813206" text-anchor="middle">39%</text>
      <text x="1035" y="25" text-anchor="middle">ND</text>
      <rect x="1055"
            y="-251.79062980283095"
            width="20"
            height="251.79062980283095"
            fill="blue"/>
      <text x="1065" y="-266.79062980283095" text-anchor="middle">50%</text>
      <text x="1065" y="25" text-anchor="middle">OH</text>
      <rect x="1085"
            y="-166.1384012849172"
            width="20"
            height="166.1384012849172"
            fill="blue"/>
      <text x="1095" y="-181.1384012849172" text-anchor="middle">33%</text>
      <text x="1095" y="25" text-anchor="middle">OK</text>
      <rect x="1115"
            y="-274.4351644083382"
            width="20"
            height="274.4351644083382"
            fill="blue"/>
      <text x="1125" y="-289.4351644083382" text-anchor="middle">55%</text>
      <text x="1125" y="25" text-anchor="middle">OR</text>
      <rect x="1145"
            y="-259.5108917396768"
            width="20"
            height="259.5108917396768"
            fill="blue"/>
      <text x="1155" y="-274.5108917396768" text-anchor="middle">52%</text>
      <text x="1155" y="25" text-anchor="middle">PA</text>
      <rect x="1175"
            y="-315.08277518008344"
            width="20"
            height="315.08277518008344"
            fill="blue"/>
      <text x="1185" y="-330.08277518008344" text-anchor="middle">63%</text>
      <text x="1185" y="25" text-anchor="middle">RI</text>
      <rect x="1205"
            y="-220.944169580991"
            width="20"
            height="220.944169580991"
            fill="blue"/>
      <text x="1215" y="-235.944169580991" text-anchor="middle">44%</text>
      <text x="1215" y="25" text-anchor="middle">SC</text>
      <rect x="1235"
            y="-200.58128275075944"
            width="20"
            height="200.58128275075944"
            fill="blue"/>
      <text x="1245" y="-215.58128275075944" text-anchor="middle">40%</text>
      <text x="1245" y="25" text-anchor="middle">SD</text>
      <rect x="1265"
            y="-196.19890625779945"
            width="20"
            height="196.19890625779945"
            fill="blue"/>
      <text x="1275" y="-211.19890625779945" text-anchor="middle">39%</text>
      <text x="1275" y="25" text-anchor="middle">TN</text>
      <rect x="1295"
            y="-206.8644589282799"
            width="20"
            height="206.8644589282799"
            fill="blue"/>
      <text x="1305" y="-221.8644589282799" text-anchor="middle">41%</text>
      <text x="1305" y="25" text-anchor="middle">TX</text>
      <rect x="1325"
            y="-125.29937454882221"
            width="20"
            height="125.29937454882221"
            fill="blue"/>
      <text x="1335" y="-140.29937454882221" text-anchor="middle">25%</text>
      <text x="1335" y="25" text-anchor="middle">UT</text>
      <rect x="1355"
            y="-337.2085544844021"
            width="20"
            height="337.2085544844021"
            fill="blue"/>
      <text x="1365" y="-352.2085544844021" text-anchor="middle">67%</text>
      <text x="1365" y="25" text-anchor="middle">VT</text>
      <rect x="1385"
            y="-257.1355610529204"
            width="20"
            height="257.1355610529204"
            fill="blue"/>
      <text x="1395" y="-272.1355610529204" text-anchor="middle">51%</text>
      <text x="1395" y="25" text-anchor="middle">VA</text>
      <rect x="1415"
            y="-280.7422480290156"
            width="20"
            height="280.7422480290156"
            fill="blue"/>
      <text x="1425" y="-295.7422480290156" text-anchor="middle">56%</text>
      <text x="1425" y="25" text-anchor="middle">WA</text>
      <rect x="1445"
            y="-178.5480850494622"
            width="20"
            height="178.5480850494622"
            fill="blue"/>
      <text x="1455" y="-193.5480850494622" text-anchor="middle">36%</text>
      <text x="1455" y="25" text-anchor="middle">WV</text>
      <rect x="1475"
            y="-264.5324432704566"
            width="20"
            height="264.5324432704566"
            fill="blue"/>
      <text x="1485" y="-279.5324432704566" text-anchor="middle">53%</text>
      <text x="1485" y="25" text-anchor="middle">WI</text>
      <rect x="1505"
            y="-141.0694943275754"
            width="20"
            height="141.0694943275754"
            fill="blue"/>
      <text x="1515" y="-156.0694943275754" text-anchor="middle">28%</text>
      <text x="1515" y="25" text-anchor="middle">WY</text>
   </g>
</svg>
